<svg xmlns="http://www.w3.org/2000/svg" viewBox="0 0 1080 1080"><defs><style>.cls-1,.cls-2{fill:none;stroke:#fff;stroke-linecap:round;stroke-width:6px;}.cls-1{stroke-miterlimit:10;}.cls-2{stroke-linejoin:round;}</style></defs><g id="Livello_3" data-name="Livello 3"><circle class="cls-1" cx="615.97" cy="529.19" r="25.1"/><path class="cls-1" d="M616,554.29h144.1c23.25,0,42.71-18.43,43.1-41.68a42.41,42.41,0,0,0-42.41-43.13s-50.64-1.23-33.8-47.76c.46-1.28,1.28-1.3,1.79,0,6.49,15.88,17,24.74,39.48,25.28a82.24,82.24,0,0,1,82.23,82.86c-.34,45.33-37.92,81.6-83.26,81.6H685.5"/><circle class="cls-1" cx="464.03" cy="529.19" r="25.1"/><path class="cls-1" d="M464,554.29H319.93c-23.25,0-42.71-18.43-43.1-41.68a42.41,42.41,0,0,1,42.41-43.13s50.64-1.23,33.8-47.76c-.46-1.28-1.28-1.3-1.79,0-6.49,15.88-17,24.74-39.48,25.28a82.24,82.24,0,0,0-82.23,82.86c.34,45.33,37.92,81.6,83.26,81.6h81.7"/><path class="cls-2" d="M468.05,554.29c0,68.58-88.14,80.44-104.21,82a89,89,0,0,0-9.36,1.36c-33.62,7-56.76,32.34-56.76,68.29,0,26.9,14,50.23,34.51,61.76,0,0,39.57,20.42,31.28,44.06-.85,2.41-.14,2.84,1.61,1,16.22-17.38,13.38-39.9-15.25-64.29a37.73,37.73,0,0,1-11.94-27.58c0-17.26,12.58-31.63,27.92-37.68,4.07-2.1,16.2-3.1,21.06-3,28.75.78,92.39,5.82,90.44-55.34,0,0,4.79,54.69-10.75,79.82-23.35,36.34-39.1,64.48-39.4,104.34-.2,27.42,22.13,51.28,49.54,52A50.87,50.87,0,0,0,529,810.19c-9,13.53-18.77,22.81-32.15,23-15.76,0-28.79-11.48-28.35-31.92.45-33.81,45.2-80.6,57.31-100.32,8.17-13.3,13.67-36.18,13.56-70.52a.67.67,0,1,1,1.32,0c-.11,34.34,5.39,57.22,13.56,70.52,12.11,19.72,56.86,66.51,57.31,100.32.44,20.44-12.59,31.92-28.35,31.92-13.38-.17-23.16-9.45-32.15-23a50.87,50.87,0,0,0,52.23,50.87c27.41-.71,49.74-24.57,49.54-52-.3-39.86-16-68-39.4-104.34-15.54-25.13-10.75-79.82-10.75-79.82-1.95,61.16,61.69,56.12,90.44,55.34,4.86-.13,17,.87,21.06,3,15.34,6,27.92,20.42,27.92,37.68a37.73,37.73,0,0,1-11.94,27.58c-28.62,24.38-31.47,46.9-15.26,64.28a1,1,0,0,0,1.62-1c-8.27-23.63,31.28-44,31.28-44,20.49-11.53,34.51-34.86,34.51-61.76,0-36-23.14-61.32-56.76-68.29a89,89,0,0,0-9.36-1.36c-16.07-1.6-104.21-13.46-104.21-82"/><path class="cls-1" d="M609.52,242.56A113.91,113.91,0,0,1,654.06,333l-18,181.1"/><path class="cls-1" d="M594,232.5c1.52.82,3,1.67,4.51,2.56"/><path class="cls-1" d="M444,514.12l-18-181.1A114.09,114.09,0,0,1,540,218.92H540a113.7,113.7,0,0,1,42.78,8.29"/></g></svg>