<svg xmlns="http://www.w3.org/2000/svg" viewBox="0 0 1080 1080"><defs><style>.cls-1{fill:none;stroke:#fff;stroke-linecap:round;stroke-linejoin:round;stroke-width:6px;}</style></defs><g id="Livello_3" data-name="Livello 3"><path class="cls-1" d="M665.77,373.43a65.89,65.89,0,0,0-65.89-65.89H404.44"/><path class="cls-1" d="M710.14,373.43A113.26,113.26,0,0,0,596.88,260.17H449.7"/><path class="cls-1" d="M735.51,373.43H636.38a24.21,24.21,0,1,1-42.21,0H512.58c-115.05,0-210.79,94.13-210.58,209.18S395.6,791,510.79,791H642.93c-10.6-90-132.14-84.85-132.14-84.85-51.31,0-92.91-38.48-92.91-85.94s41.6-86,92.91-86c144,2.6,216.26-51.74,234.41-149.1A9.89,9.89,0,0,0,735.51,373.43Z"/><path class="cls-1" d="M636.38,373.43a24.19,24.19,0,0,0-42.21,0"/><path class="cls-1" d="M492,503.16c-15.43-13.57-30.34-40.3-39-72.9a200.44,200.44,0,0,1-6.84-46"/><path class="cls-1" d="M338.87,561.8q-4-2.41-7.67-5"/><path class="cls-1" d="M429.59,576.82c-17.91,5.22-41,4.61-64.34-3a130.9,130.9,0,0,1-14.82-5.85"/><path class="cls-1" d="M536.87,709.16c3.53,11.4,5.64,25.94,5.64,41.77a149.66,149.66,0,0,1-4.65,38.36"/><path class="cls-1" d="M433.54,668c-.42,32.66-29.75,59.61-67.9,64.31"/><ellipse class="cls-1" cx="711.01" cy="786.02" rx="67.05" ry="33.76" transform="translate(-32.14 30.31) rotate(-2.39)"/><path class="cls-1" d="M751.91,749a67.19,67.19,0,0,0,8.75-29.87c-20.71-11.29-49.52-10.72-75,3.72S645,761.73,644,785.3"/></g></svg>