<svg xmlns="http://www.w3.org/2000/svg" viewBox="0 0 1080 1080"><defs><style>.cls-1{fill:none;stroke:#fff;stroke-linecap:round;stroke-miterlimit:10;stroke-width:6px;}</style></defs><g id="Livello_3" data-name="Livello 3"><line class="cls-1" x1="253.01" y1="545.19" x2="309.86" y2="533.27"/><path class="cls-1" d="M424.72,464l-38.58-23.5a3.3,3.3,0,0,1,.82-6l156.58-44.08a17.65,17.65,0,0,1,9.53.45l75.56,29.3"/><path class="cls-1" d="M521.7,637.06l-16.43,16.72a3.84,3.84,0,0,0,1.34,6.28C523.33,666.6,575,686,608,689.78a40.51,40.51,0,0,0,34.09-12.64l27-28.77"/><circle class="cls-1" cx="769.24" cy="514.24" r="22.83"/><path class="cls-1" d="M722.16,594.71c-10.12-17.37-15.56-43.42-13.54-72.06,2.64-37.48,17.29-68.77,35.92-81.26"/><path class="cls-1" d="M674.19,425.65a497.91,497.91,0,0,0-70.62-5.3c-76.49-.34-157.76,32.21-227,69-33.48,22.51-98.37-5.84-148.79-30.7a4.34,4.34,0,0,0-4.82,6.44l20.81,34.45a61.48,61.48,0,0,1-.23,64l-20.45,33.27c-3.13,5.09-1,8,4.81,6.47,0,0,49-20.12,92.1-29.35a101.47,101.47,0,0,1,63.93,7.36c4.55,2.11,129.94,67,218.53,70.23,86.95,3.15,200.28-34.23,246.56-80.74a47.86,47.86,0,0,0,6.45-8.08,4.19,4.19,0,0,0-3.06-6.4l-12.22-1.43a6.38,6.38,0,0,1-3.61-11l18.88-17.56a9,9,0,0,0,1.81-10.91,46.09,46.09,0,0,0-3.16-5.09C831.79,479,783.22,451.09,720.51,435"/><path class="cls-1" d="M701.38,430.5q-4.25-.9-8.56-1.71"/><path class="cls-1" d="M658.05,500.09a22.75,22.75,0,0,1,0-45.49"/><path class="cls-1" d="M658.05,545.61a22.74,22.74,0,0,1,0-45.48"/><path class="cls-1" d="M658.05,591.1a22.74,22.74,0,0,1,0-45.48"/><path class="cls-1" d="M620.83,525.57a22.74,22.74,0,1,1,0-45.48"/><path class="cls-1" d="M620.83,571.1a22.74,22.74,0,1,1,0-45.48"/><path class="cls-1" d="M620.83,616.59a22.74,22.74,0,1,1,0-45.48"/><path class="cls-1" d="M576.22,495.06a22.75,22.75,0,0,1,0-45.49"/><path class="cls-1" d="M576.22,540.58a22.74,22.74,0,0,1,0-45.48"/><path class="cls-1" d="M576.22,586.07a22.74,22.74,0,0,1,0-45.48"/><path class="cls-1" d="M519.55,544.61a22.74,22.74,0,1,1,0-45.48"/><path class="cls-1" d="M519.55,590.1a22.75,22.75,0,0,1,0-45.49"/><path class="cls-1" d="M474.28,520.46a22.74,22.74,0,1,1,0-45.48"/><path class="cls-1" d="M474.28,566a22.74,22.74,0,1,1,0-45.48"/><path class="cls-1" d="M428.67,553.21a22.74,22.74,0,0,1,0-45.48"/></g></svg>