<svg xmlns="http://www.w3.org/2000/svg" viewBox="0 0 1080 1080"><defs><style>.cls-1{fill:none;stroke:#fff;stroke-linecap:round;stroke-miterlimit:10;stroke-width:6px;}</style></defs><g id="Livello_3" data-name="Livello 3"><path class="cls-1" d="M751.3,566.17a267.37,267.37,0,0,0-133.4-97.39"/><path class="cls-1" d="M295.12,606a264.59,264.59,0,0,0-26.85,113.59,269.34,269.34,0,0,0,1.89,35,16.19,16.19,0,0,0,16.09,14.26H783.41a16,16,0,0,0,15.9-14.22c1.18-10.56,2.54-24.4,2.54-32.1A268.51,268.51,0,0,0,799,683.65"/><path class="cls-1" d="M303.3,590.51q-1.55,2.72-3.05,5.48"/><path class="cls-1" d="M450.37,469.49A268.73,268.73,0,0,0,310.28,579"/><path class="cls-1" d="M507.13,344.29a31.76,31.76,0,0,0,1.67,8.81,2.12,2.12,0,0,1-2.52,2.76,31.67,31.67,0,0,0-33.69,48.7,2.31,2.31,0,0,1-1.6,3.61,36,36,0,0,0-31.33,39.13C441.35,466,457.61,480,476.36,480H591.21c18.77,0,35-14,36.71-32.72a36.06,36.06,0,0,0-30.18-38.92,3.51,3.51,0,0,1-2.59-5.11,30.82,30.82,0,0,0,3.5-14.44"/><path class="cls-1" d="M508.92,332.51c0,.13-.09.27-.14.4"/><path class="cls-1" d="M564.56,356.44c-16.61-2.81-25.76-15-25.76-31.06a31.22,31.22,0,0,1,1.71-10.19,3,3,0,0,0-2.94-4,29.63,29.63,0,0,0-8.23,1.51,32.71,32.71,0,0,0-12.26,7.35"/><path class="cls-1" d="M549.17,412.39c1.2-19.77,9.86-75.79,68.58-99.15a4.44,4.44,0,0,1,6.09,3.83c1.15,17.39-1.49,69.42-68.39,99.62A4.45,4.45,0,0,1,549.17,412.39Z"/><path class="cls-1" d="M547.32,418.09c-10.68-1.8-43-10.16-52.41-46-.38-1.43.75-2.54,2.21-2.78,11.26-1.87,43.47.23,52.69,45.89A2.26,2.26,0,0,1,547.32,418.09Z"/><path class="cls-1" d="M629.13,513.2a9.81,9.81,0,0,0,3.68,5.29,2,2,0,0,0,3.13-1.52q.27-3-3.73-6A2,2,0,0,0,629.13,513.2Z"/><path class="cls-1" d="M656.5,527.8a9.72,9.72,0,0,0,3.69,5.28,2,2,0,0,0,3.12-1.51c.19-2-1.06-4-3.73-6A2,2,0,0,0,656.5,527.8Z"/><path class="cls-1" d="M615,546.25a9.73,9.73,0,0,0,3.68,5.28,2,2,0,0,0,3.13-1.51q.27-3-3.73-6A2,2,0,0,0,615,546.25Z"/><path class="cls-1" d="M583.07,511.68a9.79,9.79,0,0,0,3.82,5.19,2,2,0,0,0,3.09-1.6c.13-2-1.16-4-3.89-5.92A2,2,0,0,0,583.07,511.68Z"/><path class="cls-1" d="M575.6,549a9.75,9.75,0,0,0,.77,6.4,2,2,0,0,0,3.47.13c1.11-1.68,1-4-.46-7.06A2,2,0,0,0,575.6,549Z"/><path class="cls-1" d="M542,531.49a9.73,9.73,0,0,0,.77,6.39,2,2,0,0,0,3.47.13c1.11-1.68.95-4-.46-7.06A2,2,0,0,0,542,531.49Z"/><path class="cls-1" d="M510.14,506.87a9.77,9.77,0,0,0-3.38,5.49,2,2,0,0,0,2.63,2.26q2.88-.95,4-5.81A2,2,0,0,0,510.14,506.87Z"/><path class="cls-1" d="M411.06,532.94a9.79,9.79,0,0,0-3.38,5.48,2,2,0,0,0,2.63,2.27q2.88-.95,4.05-5.81A2,2,0,0,0,411.06,532.94Z"/><path class="cls-1" d="M510.14,544.07a9.73,9.73,0,0,0-3.38,5.48,2,2,0,0,0,2.63,2.27q2.88-.95,4-5.82A2,2,0,0,0,510.14,544.07Z"/><path class="cls-1" d="M457.3,548.21a9.73,9.73,0,0,0-3.38,5.48,2,2,0,0,0,2.63,2.26c1.92-.62,3.26-2.56,4-5.81A2,2,0,0,0,457.3,548.21Z"/><path class="cls-1" d="M465.15,505.23a9.76,9.76,0,0,0-3.39,5.48A2,2,0,0,0,464.4,513q2.87-.93,4-5.81A2,2,0,0,0,465.15,505.23Z"/><path class="cls-1" d="M800.57,675.82a148.65,148.65,0,0,1-256.93,31.93A13,13,0,0,1,547.41,689L779.14,549.4A12.59,12.59,0,0,1,797,554.73a148,148,0,0,1,13.77,81.66"/><path class="cls-1" d="M807.58,654.14q-.62,2.57-1.32,5.11"/><path class="cls-1" d="M767,558.68A120.24,120.24,0,0,1,561,682.76"/><path class="cls-1" d="M722.73,645.23c8.12,2.23,12.12,11.74,7.56,18.83-.16.25-.33.49-.51.74s-.37.47-.56.7c-5.48,6.4-15.74,5.3-20.21-1.84l-13.94-22.24a2.12,2.12,0,0,1,2.35-3.16Z"/><path class="cls-1" d="M728.53,604.27c7.32-4.16,16.87-.26,18.66,8,.06.29.11.59.16.89s.07.6.1.89c.66,8.4-7.38,14.88-15.59,13l-25.58-5.87a2.11,2.11,0,0,1-.57-3.89Z"/><path class="cls-1" d="M662.92,681.25c-1.82,8.23,4.71,16.21,13.11,15.49.3,0,.59-.06.89-.11a8.74,8.74,0,0,0,.89-.17c8.22-1.84,12-11.42,7.82-18.72L672.49,655a2.11,2.11,0,0,0-3.89.6Z"/><path class="cls-1" d="M624,667.23c-7.1,4.53-8.13,14.79-1.68,20.22.23.19.46.38.71.55s.49.35.74.51c7.12,4.51,16.6.44,18.77-7.7l6.77-25.36a2.11,2.11,0,0,0-3.17-2.33Z"/></g></svg>