<svg xmlns="http://www.w3.org/2000/svg" viewBox="0 0 1080 1080"><defs><style>.cls-1{fill:none;stroke:#fff;stroke-linecap:round;stroke-linejoin:round;stroke-width:6px;}</style></defs><g id="Livello_3" data-name="Livello 3"><path class="cls-1" d="M698.81,696.23c86.88-3.59,155.39-44.56,155.39-94.57,0,0,0-68.38-147.65-197.93-4.34-3.8-14.42-11.58-14.42-11.58s-10.08,7.78-14.42,11.58C530.06,533.28,530.06,601.66,530.06,601.66c0,49.67,67.59,90.42,153.63,94.49A127.59,127.59,0,0,0,698.81,696.23Z"/><path class="cls-1" d="M774,519.12c-24.47,13.29-59.75,18.32-97.14,11.57-35.57-6.42-65.63-22.14-84.21-41.75"/><path class="cls-1" d="M764.31,598.06a205.32,205.32,0,0,1-67.43,11c-70.93,0-129.36-33.39-137.11-76.36"/><path class="cls-1" d="M779.92,591.7c-1.15.54-2.31,1.07-3.49,1.59"/><path class="cls-1" d="M831.05,543.14c-6.26,16.23-19.88,30.67-38.55,41.86"/><path class="cls-1" d="M738.65,641.42a222.54,222.54,0,0,1-46.52,4.83c-73.73,0-135.24-35-149.46-81.41"/><path class="cls-1" d="M805.08,612.84a153.79,153.79,0,0,1-29.35,16.75"/><path class="cls-1" d="M841.6,564.84C837.57,578,829.76,590.21,819,601"/><path class="cls-1" d="M381.19,383.77c-86.88,3.59-155.39,44.56-155.39,94.57,0,0,0,68.38,147.65,197.93,4.34,3.8,14.42,11.58,14.42,11.58s10.08-7.78,14.42-11.58C549.94,546.72,549.94,478.34,549.94,478.34c0-49.67-67.59-90.42-153.63-94.49A127.59,127.59,0,0,0,381.19,383.77Z"/><path class="cls-1" d="M306,560.88c24.47-13.29,59.75-18.32,97.14-11.57,35.57,6.42,65.63,22.14,84.21,41.75"/><path class="cls-1" d="M315.69,481.94a205.32,205.32,0,0,1,67.43-11c70.93,0,129.36,33.39,137.11,76.36"/><path class="cls-1" d="M300.08,488.3c1.15-.54,2.31-1.07,3.49-1.59"/><path class="cls-1" d="M249,536.86c6.26-16.23,19.88-30.67,38.55-41.86"/><path class="cls-1" d="M341.35,438.58a222.54,222.54,0,0,1,46.52-4.83c73.73,0,135.24,34.95,149.46,81.41"/><path class="cls-1" d="M274.92,467.16a153.79,153.79,0,0,1,29.35-16.75"/><path class="cls-1" d="M238.4,515.16c4-13.14,11.84-25.37,22.64-36.14"/></g></svg>