<svg xmlns="http://www.w3.org/2000/svg" viewBox="0 0 1080 1080"><defs><style>.cls-1,.cls-2{fill:none;stroke:#fff;stroke-linecap:round;stroke-width:6px;}.cls-1{stroke-miterlimit:10;}.cls-2{stroke-linejoin:round;}</style></defs><g id="Livello_3" data-name="Livello 3"><path class="cls-1" d="M592.07,306c.31,1.38.63,2.78.94,4.19"/><path class="cls-1" d="M595.37,321.88s31.51,144.49,28.24,291.88a9.11,9.11,0,0,1-6.06,8.38L548,646.94l-4.5,1.59a10.56,10.56,0,0,1-7.06,0l-4.6-1.63-69.42-24.76a9.11,9.11,0,0,1-6.06-8.38c-3.27-147.39,28.24-291.88,28.24-291.88,11.38-60.17,31.71-100.52,55-101.43a5.31,5.31,0,0,1,.8,0h.13c19.23.87,36.46,28.72,48.26,72.44"/><path class="cls-1" d="M671,350.73c-49.36-71.79-105.31-131-130.6-130.29l-.35.42-.35-.42c-34.52-.92-126.17,109.67-180.19,211.65a24.84,24.84,0,0,0,8.14,32.18l90.32,61.67"/><path class="cls-1" d="M681.59,366.57q-2.3-3.49-4.61-7"/><path class="cls-1" d="M621.73,526.18l90.67-61.91a24.84,24.84,0,0,0,8.14-32.18c-9.51-18-20.2-36.2-31.53-54"/><circle class="cls-1" cx="598.38" cy="656.23" r="22.76"/><path class="cls-2" d="M620.16,661.8v78.8c0,20.07,16.44,36.26,36.48,34.94a34.2,34.2,0,0,0,31.91-34.12c3.09-54.89,40.43-59.35,66-46.44,1.32.67,1.21,1.48-.24,1.79-46.8,10.17-45.7,59.88-45.7,59.88A66.43,66.43,0,0,1,577.79,773c-4.92-16.44-4-61.46-4-61.46l-1,78.8a64.81,64.81,0,0,0,51.75,63.48c1.82.37,1.9,1.2.16,1.84a62.76,62.76,0,0,1-84.49-58.88l-.15-82.08"/><circle class="cls-1" cx="481.62" cy="656.23" r="22.76"/><path class="cls-2" d="M459.84,661.8v78.8c0,20.07-16.44,36.26-36.48,34.94a34.2,34.2,0,0,1-31.91-34.12c-3.09-54.89-40.43-59.35-66-46.44-1.32.67-1.21,1.48.24,1.79,46.8,10.17,45.7,59.88,45.7,59.88A66.43,66.43,0,0,0,502.21,773c4.92-16.44,4-61.46,4-61.46l1,78.8a64.81,64.81,0,0,1-51.75,63.48c-1.82.37-1.9,1.2-.16,1.84a62.76,62.76,0,0,0,84.49-58.88l.15-82.08"/></g></svg>